<?xml version="1.0" encoding="utf-8"?>
<!-- Generator: Adobe Illustrator 21.0.2, SVG Export Plug-In . SVG Version: 6.00 Build 0)  -->
<svg version="1.1" id="Untitled-1_xA0_Image_1_" xmlns="http://www.w3.org/2000/svg" xmlns:xlink="http://www.w3.org/1999/xlink"
	 x="0px" y="0px" viewBox="0 0 1133.8 1133.8" style="enable-background:new 0 0 1133.8 1133.8;" xml:space="preserve">
<style type="text/css">
	.st0{fill:#F37321;}
</style>
<g>
	<path class="st0" d="M580.3,448.2c-7.4,1.9-13.9,3.4-20.3,5.2c-33.8,9.4-65,24.1-93.1,45.1c-24.5,18.3-45,40.2-60.6,66.7
		c-12.1,20.6-20.3,42.6-24.6,66.2c-3,16.3-3.6,32.8-2.4,49.2c1.6,22.8,7.4,44.7,16.5,65.7c13,29.9,31.8,55.7,55.3,78.3
		c26.1,25.1,56.1,44.3,89.4,58.6c23.5,10.1,47.8,17.2,72.9,21.7c8,1.4,16.1,2.2,24.2,3.3c15.1,2,30.3,2,45.5,1.8
		c8.3-0.1,16.6-0.9,24.9-1.7c14-1.3,27.9-3.7,41.5-7c41.3-10.1,79-27.4,112.2-54.3c20.4-16.6,37.7-35.9,51.4-58.5
		c0.6-1,1.3-2,2.5-3.8c0,2,0.1,3.1,0,4.1c-7.7,57.6-31.9,107.4-71.3,150c-25.2,27.1-54.5,48.7-87.4,65.7c-29,15-59.6,25.6-91.5,32.4
		c-13.4,2.8-27.1,4.7-40.7,6.2c-19.3,2.1-38.6,2-58,1.5c-5.7-0.1-11.5-0.9-17.2-1.5c-5.9-0.6-11.8-1.3-17.6-2
		c-16.5-2.1-32.8-5.4-48.8-9.8c-43.3-11.7-83.5-30.1-120.2-56.1c-35.9-25.5-66-56.5-89.4-93.9c-17.2-27.5-29.5-57-36.5-88.7
		c-1.9-8.7-3.4-17.6-4.4-26.5c-1.3-11.3-1.9-22.6-1.7-34c0.1-8.2,0.8-16.3,1.7-24.4c1.1-11.2,3.2-22.1,5.8-33
		c5-20.8,12.5-40.6,22.4-59.5c19.4-37.2,46.2-68.2,79.2-93.9c29.5-23.1,62.1-40.3,97.5-52.7c17.4-6.1,35.1-10.8,53.2-14.2
		c9.9-1.9,19.9-3.2,29.9-4.3C539.9,447.8,559.5,447.6,580.3,448.2z"/>
	<path class="st0" d="M684.8,865.7c1-1.2,1.4-1.9,2-2.4c16.6-15.3,26.8-34.4,32.5-56.1c2.2-8.4,3.5-16.9,4.1-25.5
		c0.6-7.8,0.4-15.7,0.4-23.5c0-96.3,0-192.6,0-288.9c-1.3-58.2-0.3-116.4-0.6-174.7c-0.1-28.3,0.1-56.6-0.2-85
		c-0.1-14.7,4-28,11.5-40.5c7.2-11.9,16.7-21.9,27.4-30.6c15.9-13,33.7-22.6,52.8-30c17.8-6.9,36.2-11.7,55-14.7
		c9.6-1.5,19.3-2.5,29-3.5c1.7-0.2,3.5-0.1,5.3-0.2c1.1,0,2.3,0,3.3-0.2c8.2-1.8,16.6-0.7,24.8-0.8c0.3,0,0.5,0.3,0.8,0.5
		c0.6,1.1-0.3,1.8-1,2.4c-2.8,3-5.8,5.9-8.5,9.1c-11.2,13.5-18.6,29-23.2,45.9c-2.7,10-4.5,20.2-5.1,30.7
		c-0.4,6.4-0.5,12.8-0.4,19.2c0,2.4,0,4.8,0,7.2c0,81.8-0.5,163.5,0.2,245.3c0.6,72.3,0.2,144.6,0.4,216.9
		c0.1,23.8-0.1,47.7-0.1,71.5c0,5.3,0.1,10.6,0.2,15.8c0.1,7.6-1.6,14.9-4.4,22c-4.3,11-11,20.5-19.1,29.1
		c-11.4,12.2-24.7,21.7-39.3,29.7c-19.5,10.7-40.2,18-61.8,23c-10.3,2.4-20.7,4.3-31.1,5.6c-8.4,1-16.9,1.5-25.3,2.2
		c-0.6,0.1-1.3-0.1-1.9,0.1c-6.8,1.8-13.7,0.8-20.5,1c-1.6,0.1-3.2,0-4.8-0.1C686.8,866.3,686.2,866,684.8,865.7z"/>
</g>
</svg>
